<?xml version="1.0" encoding="UTF-8"?>
<!DOCTYPE svg PUBLIC "-//W3C//DTD SVG 1.1//EN" "http://www.w3.org/Graphics/SVG/1.1/DTD/svg11.dtd">
<svg xmlns="http://www.w3.org/2000/svg" version="1.1" width="2284px" height="688px" style="shape-rendering:geometricPrecision; text-rendering:geometricPrecision; image-rendering:optimizeQuality; fill-rule:evenodd; clip-rule:evenodd" xmlns:xlink="http://www.w3.org/1999/xlink">
<g><path style="opacity:0.985" fill="#13217d" d="M 18.5,-0.5 C 19.1667,-0.5 19.8333,-0.5 20.5,-0.5C 30.1527,0.750702 36.3194,6.08404 39,15.5C 39.6667,55.5 39.6667,95.5 39,135.5C 34.0489,148.392 24.8823,152.892 11.5,149C 4.48151,145.162 0.481511,139.329 -0.5,131.5C -0.5,93.8333 -0.5,56.1667 -0.5,18.5C 1.5,7.83333 7.83333,1.5 18.5,-0.5 Z"/></g>
<g><path style="opacity:0.985" fill="#13217d" d="M 88.5,-0.5 C 89.1667,-0.5 89.8333,-0.5 90.5,-0.5C 100.153,0.750702 106.319,6.08404 109,15.5C 109.667,70.1667 109.667,124.833 109,179.5C 104.957,191.943 96.4567,196.777 83.5,194C 77.3333,191.833 73.1667,187.667 71,181.5C 69.8544,153.539 69.3544,125.539 69.5,97.5C 69.6667,71.1667 69.8333,44.8333 70,18.5C 71.6793,7.65541 77.8459,1.32208 88.5,-0.5 Z"/></g>
<g><path style="opacity:0.987" fill="#13217d" d="M 160.5,-0.5 C 160.833,-0.5 161.167,-0.5 161.5,-0.5C 170.958,0.326364 177.124,5.32636 180,14.5C 180.667,84.8333 180.667,155.167 180,225.5C 173.397,239.146 163.231,242.646 149.5,236C 145.884,233.258 143.384,229.758 142,225.5C 141.333,155.167 141.333,84.8333 142,14.5C 144.876,5.32636 151.042,0.326364 160.5,-0.5 Z"/></g>
<g><path style="opacity:0.986" fill="#13217d" d="M 230.5,-0.5 C 231.167,-0.5 231.833,-0.5 232.5,-0.5C 243.154,1.32208 249.321,7.65541 251,18.5C 251.667,101.167 251.667,183.833 251,266.5C 249.91,278.424 243.41,284.757 231.5,285.5C 221.373,285.205 214.873,280.205 212,270.5C 211.333,185.5 211.333,100.5 212,15.5C 214.681,6.08404 220.847,0.750702 230.5,-0.5 Z"/></g>
<g><path style="opacity:0.985" fill="#274c9f" d="M 422.5,-0.5 C 423.167,-0.5 423.833,-0.5 424.5,-0.5C 440.646,3.44864 446.146,13.4486 441,29.5C 439.859,31.6089 438.359,33.4422 436.5,35C 394.345,62.4894 351.678,89.1561 308.5,115C 290.239,115.932 282.406,107.432 285,89.5C 286.302,85.7257 288.469,82.559 291.5,80C 331.833,54.3333 372.167,28.6667 412.5,3C 415.85,1.51368 419.184,0.347016 422.5,-0.5 Z"/></g>
<g><path style="opacity:0.997" fill="#274c9f" d="M 869.5,-0.5 C 871.167,-0.5 872.833,-0.5 874.5,-0.5C 948.003,3.62548 1018.34,21.1255 1085.5,52C 1094.73,56.1984 1103.57,61.0317 1112,66.5C 1113.8,69.1221 1113.8,71.7887 1112,74.5C 1092.06,115.378 1072.39,156.378 1053,197.5C 1050.47,203.408 1047.3,208.908 1043.5,214C 1041.5,214.667 1039.5,214.667 1037.5,214C 990.733,188.466 940.733,174.633 887.5,172.5C 871.408,172.201 856.075,175.368 841.5,182C 829.957,190.63 826.457,201.796 831,215.5C 837.732,227.298 847.566,235.465 860.5,240C 899.351,252.13 938.351,263.797 977.5,275C 1020.92,289.279 1058.42,312.779 1090,345.5C 1121.5,382.318 1137,425.151 1136.5,474C 1133.02,594.63 1071.69,664.296 952.5,683C 934.406,685.267 916.406,686.767 898.5,687.5C 892.5,687.5 886.5,687.5 880.5,687.5C 782.848,683.562 692.515,655.728 609.5,604C 607.99,602.649 606.99,600.982 606.5,599C 628.922,548.655 651.756,498.488 675,448.5C 676.674,444.747 679.507,443.247 683.5,444C 730.798,473.478 781.798,493.811 836.5,505C 862.704,510.504 889.038,511.504 915.5,508C 934.766,502.454 942.932,489.954 940,470.5C 935.639,460.138 928.473,452.304 918.5,447C 910.739,442.786 902.739,439.119 894.5,436C 864.59,427.023 834.59,418.356 804.5,410C 755.879,397.123 715.046,371.957 682,334.5C 649.513,291.019 635.18,242.019 639,187.5C 645.854,108.663 685.354,53.1628 757.5,21C 793.611,6.81785 830.944,-0.34882 869.5,-0.5 Z"/></g>
<g><path style="opacity:0.997" fill="#274c9f" d="M 1418.5,-0.5 C 1420.5,-0.5 1422.5,-0.5 1424.5,-0.5C 1502.59,4.10768 1576.92,23.6077 1647.5,58C 1652.42,60.7072 1657.25,63.5406 1662,66.5C 1662.67,68.8333 1662.67,71.1667 1662,73.5C 1639.82,120.686 1616.99,167.52 1593.5,214C 1591.5,214.667 1589.5,214.667 1587.5,214C 1540.74,188.469 1490.74,174.636 1437.5,172.5C 1420.55,171.894 1404.55,175.394 1389.5,183C 1376.45,195.332 1375.12,208.832 1385.5,223.5C 1391.86,230.028 1399.2,235.194 1407.5,239C 1451.82,252.663 1496.16,266.329 1540.5,280C 1655.33,325.133 1701.83,408.633 1680,530.5C 1662.24,604.599 1616.74,652.432 1543.5,674C 1512.24,682.364 1480.57,686.864 1448.5,687.5C 1442.5,687.5 1436.5,687.5 1430.5,687.5C 1332.82,683.661 1242.49,655.828 1159.5,604C 1157.41,602.745 1156.41,600.912 1156.5,598.5C 1179.04,548.064 1201.87,497.731 1225,447.5C 1227.64,443.299 1231.14,442.465 1235.5,445C 1294.22,482.018 1358.22,503.684 1427.5,510C 1444.88,512.363 1461.55,510.029 1477.5,503C 1489.7,493.407 1493.2,481.241 1488,466.5C 1482.51,458.009 1475.34,451.176 1466.5,446C 1455.23,440.355 1443.57,435.688 1431.5,432C 1406.83,425 1382.17,418 1357.5,411C 1319.54,401.024 1285.54,383.69 1255.5,359C 1215.34,322.839 1193.17,277.672 1189,223.5C 1181.69,138.605 1214.19,74.4382 1286.5,31C 1328.04,9.78101 1372.04,-0.718989 1418.5,-0.5 Z"/></g>
<g><path style="opacity:0.985" fill="#274c9f" d="M 542.5,10.5 C 559.803,9.969 567.636,18.3023 566,35.5C 564.398,40.8769 561.231,45.0435 556.5,48C 475.998,98.7502 395.664,149.75 315.5,201C 304.811,206.75 295.311,205.25 287,196.5C 281.281,185.543 283.114,176.043 292.5,168C 371.167,118 449.833,68 528.5,18C 533.126,15.1553 537.793,12.6553 542.5,10.5 Z"/></g>
<g><path style="opacity:0.996" fill="#274c9f" d="M 2283.5,22.5 C 2283.5,237.167 2283.5,451.833 2283.5,666.5C 2282.64,667.688 2281.64,668.855 2280.5,670C 2219.08,670.992 2157.75,670.659 2096.5,669C 2043.87,572.913 1991.37,476.747 1939,380.5C 1936.33,377.833 1933.67,377.833 1931,380.5C 1930.99,476.543 1930.32,572.543 1929,668.5C 1928.25,669.126 1927.42,669.626 1926.5,670C 1866.5,670.667 1806.5,670.667 1746.5,670C 1745.67,669.167 1744.83,668.333 1744,667.5C 1743.33,452.167 1743.33,236.833 1744,21.5C 1744.83,20.6667 1745.67,19.8333 1746.5,19C 1807.92,18.0078 1869.25,18.3411 1930.5,20C 1982.46,115.42 2034.29,210.92 2086,306.5C 2088.21,311.67 2091.55,312.67 2096,309.5C 2096.01,213.11 2096.67,116.777 2098,20.5C 2098.75,19.8742 2099.58,19.3742 2100.5,19C 2160.5,18.3333 2220.5,18.3333 2280.5,19C 2281.64,20.1451 2282.64,21.3117 2283.5,22.5 Z"/></g>
<g><path style="opacity:0.985" fill="#274c9f" d="M 542.5,98.5 C 559.455,96.9599 567.955,104.627 568,121.5C 567.166,126.668 564.666,130.835 560.5,134C 479.167,185.667 397.833,237.333 316.5,289C 302.832,295.544 292.665,292.044 286,278.5C 284.146,270.067 286.312,262.9 292.5,257C 375.762,203.88 459.095,151.046 542.5,98.5 Z"/></g>
<g><path style="opacity:0.981" fill="#4799bf" d="M -0.5,223.5 C -0.5,222.833 -0.5,222.167 -0.5,221.5C 3.40753,204.54 13.7409,199.04 30.5,205C 95.1667,245.333 159.833,285.667 224.5,326C 231.997,333.737 233.497,342.57 229,352.5C 220.311,362.693 210.144,364.193 198.5,357C 133.245,316.792 68.4118,275.958 4,234.5C 1.87915,230.947 0.37915,227.28 -0.5,223.5 Z"/></g>
<g><path style="opacity:0.977" fill="#4799bf" d="M 491.5,219.5 C 497.563,218.838 503.23,220.004 508.5,223C 524.902,233.729 541.568,244.063 558.5,254C 570.062,264.702 570.395,275.702 559.5,287C 553.204,290.785 546.538,291.452 539.5,289C 521.5,278 503.5,267 485.5,256C 475.889,247.393 474.389,237.56 481,226.5C 483.998,223.262 487.498,220.929 491.5,219.5 Z"/></g>
<g><path style="opacity:0.979" fill="#4799bf" d="M 419.5,265.5 C 425.892,264.791 431.892,265.957 437.5,269C 478.5,294.667 519.5,320.333 560.5,346C 569.763,356.316 569.763,366.649 560.5,377C 554.278,381.226 547.611,382.226 540.5,380C 498.5,354 456.5,328 414.5,302C 404.122,293.058 402.788,282.891 410.5,271.5C 413.084,268.72 416.084,266.72 419.5,265.5 Z"/></g>
<g><path style="opacity:0.979" fill="#4799bf" d="M 15.5,289.5 C 21.5325,288.965 27.1992,290.132 32.5,293C 73.5,318.667 114.5,344.333 155.5,370C 162.997,377.737 164.497,386.57 160,396.5C 153.539,404.654 145.372,407.154 135.5,404C 93.5,378 51.5,352 9.5,326C -0.394894,317.4 -1.89489,307.567 5,296.5C 7.99784,293.262 11.4978,290.929 15.5,289.5 Z"/></g>
<g><path style="opacity:0.981" fill="#4799bf" d="M 349.5,309.5 C 356.255,308.668 362.589,309.835 368.5,313C 432.167,352.667 495.833,392.333 559.5,432C 571.032,442.704 571.366,453.704 560.5,465C 552.516,469.596 544.516,469.596 536.5,465C 473.001,425.083 409.335,385.416 345.5,346C 335.33,337.152 333.83,326.985 341,315.5C 343.736,313.248 346.569,311.248 349.5,309.5 Z"/></g>
<g><path style="opacity:0.985" fill="#274c9f" d="M -0.5,553.5 C -0.5,552.833 -0.5,552.167 -0.5,551.5C 0.178107,545.686 2.84477,540.853 7.5,537C 90.4957,483.833 173.829,431.167 257.5,379C 276.183,377.35 284.349,385.85 282,404.5C 280.698,408.274 278.531,411.441 275.5,414C 194.167,465.667 112.833,517.333 31.5,569C 14.5126,576.338 3.84598,571.172 -0.5,553.5 Z"/></g>
<g><path style="opacity:0.977" fill="#4799bf" d="M 18.5,379.5 C 23.8832,379.73 28.8832,381.23 33.5,384C 50.8333,395 68.1667,406 85.5,417C 93.7136,427.289 93.3803,437.289 84.5,447C 78.275,451.227 71.6083,452.227 64.5,450C 44.1333,438.291 24.2999,425.791 5,412.5C -3.16296,396.173 1.33704,385.173 18.5,379.5 Z"/></g>
<g><path style="opacity:0.987" fill="#13217d" d="M 336.5,384.5 C 346.465,385.059 352.965,390.059 356,399.5C 356.667,485.167 356.667,570.833 356,656.5C 350.059,669.93 340.226,673.763 326.5,668C 322.512,665.013 319.679,661.18 318,656.5C 317.333,570.833 317.333,485.167 318,399.5C 320.876,390.326 327.042,385.326 336.5,384.5 Z"/></g>
<g><path style="opacity:0.986" fill="#13217d" d="M 401.5,431.5 C 416.379,429.504 424.879,435.838 427,450.5C 427.667,517.5 427.667,584.5 427,651.5C 425.839,663.661 419.172,669.995 407,670.5C 397.177,670.019 390.844,665.019 388,655.5C 387.333,585.833 387.333,516.167 388,446.5C 390.29,439.383 394.79,434.383 401.5,431.5 Z"/></g>
<g><path style="opacity:0.985" fill="#274c9f" d="M 258.5,466.5 C 276.651,464.488 285.151,472.488 284,490.5C 282.881,495.239 280.381,499.072 276.5,502C 195.833,553.333 115.167,604.667 34.5,656C 23.6867,662.752 13.8534,661.586 5,652.5C -0.510609,642.427 0.656058,633.26 8.5,625C 91.7288,571.892 175.062,519.059 258.5,466.5 Z"/></g>
<g><path style="opacity:0.997" fill="#13217d" d="M 475.5,475.5 C 487.523,475.373 495.023,481.04 498,492.5C 498.667,546.5 498.667,600.5 498,654.5C 495.571,664.76 489.071,670.093 478.5,670.5C 467.488,669.987 460.988,664.32 459,653.5C 458.333,599.833 458.333,546.167 459,492.5C 459.856,488.456 461.522,484.789 464,481.5C 467.575,478.798 471.408,476.798 475.5,475.5 Z"/></g>
<g><path style="opacity:0.995" fill="#13217d" d="M 542.5,520.5 C 555.667,518.655 564.167,523.989 568,536.5C 568.667,575.833 568.667,615.167 568,654.5C 565.571,664.76 559.071,670.093 548.5,670.5C 537.488,669.987 530.988,664.32 529,653.5C 528.333,614.833 528.333,576.167 529,537.5C 530.368,529.303 534.868,523.637 542.5,520.5 Z"/></g>
<g><path style="opacity:0.985" fill="#274c9f" d="M 258.5,555.5 C 273.404,553.414 282.07,559.747 284.5,574.5C 284.215,581.205 281.549,586.705 276.5,591C 234.766,617.729 192.766,644.062 150.5,670C 129.828,670.999 121.994,661.499 127,641.5C 128.458,639.04 130.291,636.873 132.5,635C 174.429,608.213 216.429,581.713 258.5,555.5 Z"/></g>
</svg>
